<?xml version="1.0" encoding="UTF-8"?>
<svg id="Calque_2" data-name="Calque 2" xmlns="http://www.w3.org/2000/svg" viewBox="0 0 1056.3 411.39">
  <defs>
    <style>
      .cls-1 {
        fill: #e1251b;
      }
    </style>
  </defs>
  <g id="LOGO">
    <g>
      <polygon class="cls-1" points="396.64 150.29 248.36 150.29 248.36 102.96 379.56 102.96 379.56 75.52 248.36 75.52 248.36 28.2 396.64 28.2 396.64 0 218.15 0 218.15 178.49 396.64 178.49 396.64 150.29"/>
      <polygon class="cls-1" points="148.02 73.76 30.21 73.76 30.21 0 0 0 0 178.49 30.21 178.49 30.21 102.21 148.02 102.21 148.02 178.49 178.49 178.49 178.49 0 148.02 0 148.02 73.76"/>
      <polygon class="cls-1" points="104.35 368.19 104.35 246.6 178.49 246.6 178.49 218.15 0 218.15 0 246.6 74.14 246.6 74.14 368.19 0 368.19 0 396.64 178.49 396.64 178.49 368.19 104.35 368.19"/>
      <path class="cls-1" d="M473.29,0h12.09l-18.64,51.02h-11.73L436.3,0h12.52l12.31,35.9L473.29,0Z"/>
      <path class="cls-1" d="M494.79,51.02V0h18.49c15.33,0,25.62,9.79,25.62,25.55s-10.29,25.48-25.69,25.48h-18.42Zm17.99-10.72c7.85,0,14.25-4.54,14.25-14.75s-6.41-14.83-14.25-14.83h-6.62v29.58h6.62Z"/>
      <path class="cls-1" d="M396.64,305.57h-93.76v28.7h65.13c-7.62,26.3-28.86,40.88-60.55,40.88-36.62,0-64.23-29.34-64.23-66.46s28.75-69.05,66.87-69.05c29.22,0,50.03,14.34,61.85,39.96l26.88-12.41c-16.61-35.99-48.12-55.81-88.73-55.81-54.1,0-96.47,42.74-96.47,97.3s41.22,94.72,93.83,94.72c27.46,0,48.19-11.09,63.17-28.37l2.7,21.6h23.3v-91.07Z"/>
    </g>
  </g>
  <g id="Calque_3" data-name="Calque 3">
    <rect class="cls-1" x="612.57" y=".03" width="3.97" height="396.49"/>
    <g>
      <path class="cls-1" d="M654.53,51.11V.1h11.51V51.11h-11.51Z"/>
      <path class="cls-1" d="M677.56,51.11V.1h32.3V10.82h-20.94v9.71h18.99v10h-18.99v9.78h21.01v10.79h-32.38Z"/>
      <path class="cls-1" d="M655.61,310.29v-51.01h7.19v51.01h-7.19Z"/>
      <path class="cls-1" d="M681.87,310.29h-6.76v-34.61h6.62v4.96c2.52-4.32,6.62-5.97,10.65-5.97,8.27,0,12.38,5.97,12.38,13.67v21.94h-6.76v-20.79c0-4.82-2.01-8.71-8.06-8.71-5.32,0-8.06,4.24-8.06,9.5v20Z"/>
      <path class="cls-1" d="M718.71,299.13c.43,3.6,3.17,6.48,8.06,6.48,3.81,0,5.9-2.16,5.9-4.6,0-2.16-1.58-3.81-4.46-4.46l-5.9-1.29c-5.4-1.15-8.63-4.82-8.63-9.71,0-5.9,5.54-10.94,12.3-10.94,9.5,0,12.45,6.19,13.17,9.28l-5.97,2.23c-.29-1.8-1.73-5.76-7.2-5.76-3.45,0-5.75,2.23-5.75,4.6,0,2.09,1.29,3.6,3.96,4.17l5.61,1.22c6.26,1.37,9.57,5.18,9.57,10.29s-4.1,10.72-12.66,10.72c-9.5,0-13.53-6.12-14.1-10.07l6.12-2.16Z"/>
      <path class="cls-1" d="M757.49,275.68h7.48v6.12h-7.48v17.99c0,3.17,1.29,4.75,4.82,4.75,.86,0,2.09-.14,2.66-.29v5.76c-.58,.22-2.3,.65-4.6,.65-5.9,0-9.64-3.6-9.64-9.86v-18.99h-6.62v-6.12h1.87c3.74,0,5.32-2.3,5.32-5.32v-5.61h6.19v10.94Z"/>
      <path class="cls-1" d="M776.34,257.69c2.73,0,4.89,2.16,4.89,4.89s-2.16,4.82-4.89,4.82-4.82-2.16-4.82-4.82,2.16-4.89,4.82-4.89Zm-3.31,52.59v-34.61h6.69v34.61h-6.69Z"/>
      <path class="cls-1" d="M800.09,275.68h7.48v6.12h-7.48v17.99c0,3.17,1.29,4.75,4.82,4.75,.86,0,2.09-.14,2.66-.29v5.76c-.58,.22-2.3,.65-4.6,.65-5.9,0-9.64-3.6-9.64-9.86v-18.99h-6.62v-6.12h1.87c3.74,0,5.32-2.3,5.32-5.32v-5.61h6.19v10.94Z"/>
      <path class="cls-1" d="M828.22,311.36c-8.06,0-12.95-6.04-12.95-13.89v-21.8h6.76v20.79c0,4.75,2.16,8.92,7.84,8.92s8.2-3.6,8.2-8.85v-20.86h6.76v28.2c0,2.73,.22,5.18,.36,6.4h-6.47c-.14-.79-.29-2.73-.29-4.17-1.87,3.6-6.19,5.25-10.22,5.25Z"/>
      <path class="cls-1" d="M865.27,275.68h7.48v6.12h-7.48v17.99c0,3.17,1.29,4.75,4.82,4.75,.86,0,2.09-.14,2.66-.29v5.76c-.58,.22-2.3,.65-4.6,.65-5.9,0-9.64-3.6-9.64-9.86v-18.99h-6.62v-6.12h1.87c3.74,0,5.32-2.3,5.32-5.32v-5.61h6.19v10.94Z"/>
      <path class="cls-1" d="M679.14,391.39c-1.66,3.31-5.32,6.19-10.72,6.19-10.14,0-16.4-8.06-16.4-18.35s6.62-18.13,16.4-18.13c6.12,0,9.42,3.02,10.58,5.83v-22.38h6.69v45.69c0,3.31,.29,5.83,.36,6.4h-6.55c-.14-.79-.36-2.59-.36-4.68v-.58Zm-10.07,.22c6.19,0,10-5.4,10-12.52s-3.74-12.01-9.93-12.01-10.22,5.04-10.22,12.16,3.67,12.37,10.14,12.37Z"/>
      <path class="cls-1" d="M727.35,386.79c-1.94,6.12-7.48,10.94-15.54,10.94-9.28,0-17.41-6.76-17.41-18.49,0-10.86,7.84-18.27,16.55-18.27,10.65,0,16.62,7.34,16.62,18.13,0,.86-.07,1.73-.14,2.16h-26.04c.14,6.19,4.6,10.5,10.43,10.5s8.42-3.09,9.71-6.98l5.83,2.01Zm-6.83-11.01c-.14-4.96-3.38-8.85-9.5-8.85-5.68,0-9.14,4.39-9.42,8.85h18.92Z"/>
      <path class="cls-1" d="M739.44,385.49c.43,3.6,3.17,6.48,8.06,6.48,3.81,0,5.9-2.16,5.9-4.6,0-2.16-1.58-3.81-4.46-4.46l-5.9-1.29c-5.4-1.15-8.63-4.82-8.63-9.71,0-5.9,5.54-10.94,12.3-10.94,9.5,0,12.45,6.19,13.17,9.28l-5.97,2.23c-.29-1.8-1.73-5.76-7.19-5.76-3.45,0-5.76,2.23-5.76,4.6,0,2.09,1.29,3.6,3.96,4.17l5.61,1.22c6.26,1.37,9.57,5.18,9.57,10.29s-4.1,10.72-12.66,10.72c-9.5,0-13.53-6.12-14.1-10.07l6.12-2.16Z"/>
      <path class="cls-1" d="M788.29,396.64v-51.01h31.01v6.55h-23.96v15.68h21.73v6.62h-21.73v15.61h23.96v6.55h-31.01Zm17.12-54.61h-6.76l7.27-8.56h9.35l-9.86,8.56Z"/>
      <path class="cls-1" d="M834.91,396.64h-6.76v-34.61h6.62v4.96c2.52-4.32,6.62-5.97,10.65-5.97,8.27,0,12.38,5.97,12.38,13.67v21.94h-6.76v-20.79c0-4.82-2.01-8.71-8.06-8.71-5.32,0-8.06,4.24-8.06,9.5v20Z"/>
      <path class="cls-1" d="M899.02,386.79c-1.94,6.12-7.48,10.94-15.54,10.94-9.28,0-17.41-6.76-17.41-18.49,0-10.86,7.84-18.27,16.55-18.27,10.65,0,16.62,7.34,16.62,18.13,0,.86-.07,1.73-.14,2.16h-26.04c.14,6.19,4.6,10.5,10.43,10.5s8.42-3.09,9.71-6.98l5.83,2.01Zm-6.83-11.01c-.14-4.96-3.38-8.85-9.5-8.85-5.68,0-9.14,4.39-9.42,8.85h18.92Z"/>
      <path class="cls-1" d="M926.93,368.87c-1.01-.14-2.01-.22-2.95-.22-5.68,0-9.5,3.02-9.5,10.65v17.34h-6.76v-34.61h6.62v6.04c2.52-5.32,6.83-6.62,10.36-6.62,.93,0,1.87,.14,2.23,.22v7.19Z"/>
      <path class="cls-1" d="M937.58,397c.5,4.82,4.17,8.49,9.42,8.49,7.27,0,10.58-3.74,10.58-11.22v-4.96c-1.65,3.17-5.4,5.68-10.58,5.68-9.21,0-15.9-6.98-15.9-16.76s6.4-16.83,15.9-16.83c5.32,0,8.92,2.01,10.65,5.47v-4.82h6.69v32.02c0,8.78-4.32,17.34-17.34,17.34-8.63,0-15.11-5.47-15.97-12.88l6.55-1.51Zm20.29-18.78c0-6.69-4.03-11.08-9.86-11.08s-10,4.39-10,11.08,3.88,11.08,10,11.08,9.86-4.39,9.86-11.08Z"/>
      <path class="cls-1" d="M978.6,344.05c2.73,0,4.89,2.16,4.89,4.89s-2.16,4.82-4.89,4.82-4.82-2.16-4.82-4.82,2.16-4.89,4.82-4.89Zm-3.31,52.59v-34.61h6.69v34.61h-6.69Z"/>
      <path class="cls-1" d="M1023.56,386.79c-1.94,6.12-7.48,10.94-15.54,10.94-9.28,0-17.41-6.76-17.41-18.49,0-10.86,7.84-18.27,16.55-18.27,10.65,0,16.62,7.34,16.62,18.13,0,.86-.07,1.73-.14,2.16h-26.04c.14,6.19,4.6,10.5,10.43,10.5s8.42-3.09,9.71-6.98l5.83,2.01Zm-6.83-11.01c-.14-4.96-3.38-8.85-9.5-8.85-5.68,0-9.14,4.39-9.42,8.85h18.92Z"/>
      <path class="cls-1" d="M1035.65,385.49c.43,3.6,3.17,6.48,8.06,6.48,3.81,0,5.9-2.16,5.9-4.6,0-2.16-1.58-3.81-4.46-4.46l-5.9-1.29c-5.4-1.15-8.63-4.82-8.63-9.71,0-5.9,5.54-10.94,12.3-10.94,9.5,0,12.45,6.19,13.17,9.28l-5.97,2.23c-.29-1.8-1.73-5.76-7.2-5.76-3.45,0-5.75,2.23-5.75,4.6,0,2.09,1.29,3.6,3.96,4.17l5.61,1.22c6.26,1.37,9.57,5.18,9.57,10.29s-4.1,10.72-12.66,10.72c-9.5,0-13.53-6.12-14.1-10.07l6.12-2.16Z"/>
    </g>
  </g>
</svg>